<?xml version="1.0" standalone="no"?>
<!DOCTYPE svg PUBLIC "-//W3C//DTD SVG 20010904//EN"
 "http://www.w3.org/TR/2001/REC-SVG-20010904/DTD/svg10.dtd">
<svg version="1.0" xmlns="http://www.w3.org/2000/svg"
 width="640.000000pt" height="640.000000pt" viewBox="0 0 640.000000 640.000000"
 preserveAspectRatio="xMidYMid meet">
<metadata>
Created by potrace 1.14, written by Peter Selinger 2001-2017
</metadata>
<g transform="translate(0.000000,640.000000) scale(0.100000,-0.100000)"
fill="#000000" stroke="none">
<path d="M2900 6390 c19 -13 30 -13 30 0 0 6 -10 10 -22 10 -19 0 -20 -2 -8
-10z"/>
<path d="M3000 6392 c0 -14 23 -32 42 -32 11 0 18 -7 18 -19 0 -11 10 -27 23
-36 21 -15 22 -14 25 5 2 12 11 20 22 20 13 0 17 -5 13 -20 -4 -16 0 -20 18
-20 13 0 39 4 57 9 28 8 32 7 32 -8 0 -37 23 -42 91 -21 36 10 102 22 148 25
46 3 99 12 117 20 20 8 48 11 69 8 28 -4 35 -2 35 10 0 24 20 32 85 33 76 1
155 14 155 25 0 5 -206 9 -475 9 -261 0 -475 -4 -475 -8z"/>
<path d="M2068 6350 c13 -23 24 -30 49 -30 49 0 47 15 -6 38 -61 28 -63 28
-43 -8z"/>
<path d="M1865 6360 c3 -5 13 -10 21 -10 8 0 12 5 9 10 -3 6 -13 10 -21 10 -8
0 -12 -4 -9 -10z"/>
<path d="M2391 6353 c-7 -8 -21 -11 -30 -8 -15 5 -52 -21 -40 -28 2 -1 13 -7
24 -13 25 -14 23 -28 -5 -32 -11 -2 -20 -7 -20 -12 0 -4 9 -6 20 -3 11 3 20 1
20 -5 0 -13 36 -25 50 -17 8 5 7 12 -2 23 -11 14 -10 15 5 9 10 -4 22 -7 26
-7 4 0 18 -10 31 -22 l23 -22 -6 26 c-7 28 5 38 49 38 17 0 24 -6 24 -19 0
-18 3 -19 29 -10 17 6 28 17 27 27 -1 14 6 16 37 14 43 -3 54 22 12 30 -16 4
-22 1 -18 -6 4 -6 -1 -5 -11 3 -12 10 -14 16 -5 21 8 6 8 9 0 14 -14 9 -33 -2
-26 -15 4 -5 0 -9 -7 -10 -7 0 -4 -4 7 -9 11 -5 14 -9 6 -9 -8 -1 -37 10 -65
23 -63 30 -136 39 -155 19z"/>
<path d="M2200 6302 c0 -10 33 -42 43 -42 14 0 7 23 -10 36 -21 16 -33 18 -33
6z"/>
<path d="M2770 6290 c0 -5 7 -10 15 -10 8 0 15 5 15 10 0 6 -7 10 -15 10 -8 0
-15 -4 -15 -10z"/>
<path d="M2115 6280 c-8 -13 13 -40 31 -40 17 0 17 5 4 31 -12 21 -25 25 -35
9z"/>
<path d="M6015 6210 c4 -6 11 -8 16 -5 14 9 11 15 -7 15 -8 0 -12 -5 -9 -10z"/>
<path d="M990 6021 c0 -19 23 -45 32 -36 3 3 3 17 0 30 -5 29 -32 34 -32 6z"/>
<path d="M905 6020 c4 -6 11 -8 16 -5 14 9 11 15 -7 15 -8 0 -12 -5 -9 -10z"/>
<path d="M1075 5990 c3 -5 10 -10 16 -10 5 0 9 5 9 10 0 6 -7 10 -16 10 -8 0
-12 -4 -9 -10z"/>
<path d="M1215 5890 c-3 -5 3 -10 14 -10 12 0 21 5 21 10 0 6 -6 10 -14 10 -8
0 -18 -4 -21 -10z"/>
<path d="M4572 5748 c-18 -18 -14 -38 7 -38 27 0 37 19 19 36 -11 11 -16 12
-26 2z"/>
<path d="M4803 5693 c7 -36 -17 -40 -54 -8 -29 23 -34 25 -47 11 -14 -14 -17
-13 -29 2 -12 16 -14 16 -27 0 -7 -10 -21 -18 -30 -18 -9 0 -16 -8 -16 -19 0
-24 -31 -52 -37 -33 -3 6 -9 10 -14 6 -19 -11 -8 -32 27 -49 29 -13 33 -19 23
-31 -6 -8 -10 -14 -8 -14 2 -1 35 -2 72 -3 68 -2 93 -15 82 -44 -9 -25 15 -23
27 1 6 14 15 26 20 26 15 0 8 19 -9 23 -14 4 -13 5 4 6 12 0 23 -5 26 -11 7
-22 39 13 34 38 -2 13 3 25 14 32 24 15 29 6 22 -44 -5 -36 -3 -44 10 -44 17
0 22 13 32 84 6 44 10 49 46 65 21 9 37 21 36 26 -5 14 -38 19 -46 7 -14 -22
-49 -23 -64 -2 -8 12 -18 17 -21 12 -3 -6 0 -17 8 -25 17 -16 11 -28 -9 -20
-8 2 -12 10 -9 16 2 7 -12 17 -32 23 -35 11 -36 11 -31 -13z m-138 -88 c0 -10
-5 -20 -11 -22 -13 -4 -27 24 -18 38 9 15 29 4 29 -16z"/>
<path d="M4500 5541 c0 -18 45 -39 58 -26 3 3 1 5 -5 5 -6 0 -13 9 -16 20 -7
25 -37 26 -37 1z"/>
<path d="M4995 5550 c3 -5 15 -10 26 -10 10 0 19 5 19 10 0 6 -12 10 -26 10
-14 0 -23 -4 -19 -10z"/>
<path d="M4570 5476 c0 -2 7 -9 15 -16 12 -10 15 -10 15 4 0 9 -7 16 -15 16
-8 0 -15 -2 -15 -4z"/>
<path d="M6123 5103 c-7 -2 -13 -11 -13 -18 0 -15 -43 -45 -65 -45 -8 0 -15 5
-15 11 0 6 -7 9 -15 5 -9 -3 -15 0 -15 10 0 8 -5 12 -11 9 -7 -5 -5 -13 6 -25
21 -23 12 -28 -53 -27 -45 1 -57 -3 -77 -25 -13 -15 -33 -29 -43 -32 -10 -4
-25 -18 -32 -31 -9 -17 -28 -29 -54 -36 -65 -16 -66 -17 -66 -49 0 -23 -4 -30
-20 -30 -11 0 -20 -7 -20 -15 0 -7 -7 -18 -16 -23 -14 -8 -14 -12 -3 -32 11
-18 11 -24 2 -27 -15 -6 -17 -43 -3 -43 6 0 10 -4 10 -9 0 -11 -50 -9 -68 3
-7 4 -18 20 -23 34 -9 24 -11 25 -20 9 -16 -28 22 -73 68 -81 55 -9 63 -8 63
8 0 16 52 28 85 20 12 -3 26 -1 29 4 4 6 21 7 46 1 22 -5 52 -6 65 -3 18 4 27
1 31 -10 9 -24 19 -20 37 19 16 33 17 34 43 21 27 -15 38 -13 124 18 24 9 49
15 55 12 6 -2 19 2 30 10 10 8 27 14 37 14 10 0 18 7 18 15 0 16 42 31 59 21
5 -3 20 -2 33 3 17 7 18 10 6 10 -11 1 -18 9 -18 21 0 17 7 20 40 20 33 0 40
3 40 20 0 11 -5 20 -12 20 -9 0 -9 3 0 12 7 7 12 45 12 99 l0 87 -42 8 c-24 4
-47 6 -53 4 -5 -2 -24 -4 -40 -5 -17 -1 -41 -7 -53 -14 -35 -19 -67 -10 -65
17 3 22 -1 25 -24 15z"/>
<path d="M850 5018 c-45 -17 -49 -48 -5 -48 16 0 25 7 29 26 9 33 7 34 -24 22z"/>
<path d="M1063 5023 c-25 -5 -32 -33 -9 -33 8 0 22 -7 30 -16 15 -14 16 -14
18 5 0 12 1 26 2 33 1 13 -11 17 -41 11z"/>
<path d="M900 4987 c0 -22 5 -27 23 -27 13 0 28 -5 35 -12 8 -8 15 -9 23 -1
13 13 -14 43 -40 43 -9 0 -22 5 -29 12 -9 9 -12 6 -12 -15z"/>
<path d="M48 4981 c-7 -12 -21 -21 -30 -21 -16 0 -18 -14 -18 -160 0 -171 5
-185 46 -139 16 18 27 20 66 16 53 -7 63 1 53 40 -5 23 -9 24 -41 18 -20 -3
-43 -9 -52 -12 -15 -6 -15 -5 -3 10 9 12 29 17 65 17 68 0 80 -9 71 -50 -7
-32 -7 -33 22 -27 17 3 34 2 39 -3 5 -4 29 -11 53 -15 43 -7 44 -7 37 19 -6
24 -4 26 26 26 32 0 107 15 112 22 2 1 6 20 10 41 6 31 4 37 -11 38 -16 0 -16
1 2 9 30 13 35 12 35 -8 0 -20 29 -52 48 -52 6 0 9 7 5 16 -4 11 2 23 18 35
29 22 39 24 39 5 0 -25 65 -29 115 -7 25 11 45 15 45 10 0 -6 7 -4 15 5 9 8
32 18 53 22 38 7 112 43 112 54 0 11 49 30 64 24 8 -3 17 0 22 7 5 9 2 10 -9
6 -10 -3 -17 -2 -17 3 0 15 -42 11 -64 -5 -29 -22 -56 -18 -78 10 -18 23 -68
36 -68 17 0 -5 -16 -16 -37 -26 -29 -14 -38 -15 -44 -4 -13 20 -10 38 6 38 8
0 15 5 15 10 0 12 -40 13 -58 1 -7 -4 -21 -23 -30 -42 -12 -25 -24 -34 -42
-34 -40 -1 -80 -16 -80 -31 0 -21 -19 -17 -52 11 -35 29 -52 28 -56 -3 -3 -18
-7 -20 -23 -12 -38 21 -53 -16 -23 -58 16 -24 13 -52 -7 -52 -6 0 -13 9 -16
20 -6 22 -20 25 -42 11 -9 -6 -23 -4 -38 6 -20 14 -23 14 -29 0 -8 -22 15 -60
32 -53 19 7 18 -9 -2 -28 -20 -20 -19 -20 -54 6 -36 26 -37 32 -6 59 14 12 22
28 19 35 -3 9 2 14 14 14 21 0 43 18 43 36 0 7 -13 11 -32 10 -24 -1 -32 3
-30 13 2 8 -3 34 -9 57 -14 48 -15 48 -126 59 -56 6 -63 5 -75 -14z m162 -41
c0 -5 -4 -10 -10 -10 -5 0 -10 5 -10 10 0 6 5 10 10 10 6 0 10 -4 10 -10z
m-55 -10 c3 -6 -1 -13 -10 -16 -19 -8 -30 0 -20 15 8 14 22 14 30 1z m-91 -6
c31 -12 17 -30 -19 -26 -34 4 -42 11 -28 25 8 9 27 9 47 1z m796 -33 c7 -13 7
-22 0 -26 -15 -9 -30 4 -30 26 0 25 16 25 30 0z m-170 -32 c0 -6 -4 -7 -10 -4
-5 3 -10 11 -10 16 0 6 5 7 10 4 6 -3 10 -11 10 -16z m-503 -31 c-3 -8 -6 -5
-6 6 -1 11 2 17 5 13 3 -3 4 -12 1 -19z m533 12 c0 -5 -4 -10 -10 -10 -5 0
-10 5 -10 10 0 6 5 10 10 10 6 0 10 -4 10 -10z m77 4 c-3 -3 -12 -4 -19 -1 -8
3 -5 6 6 6 11 1 17 -2 13 -5z"/>
<path d="M290 4939 c0 -14 5 -19 17 -17 26 5 29 38 4 38 -15 0 -21 -6 -21 -21z"/>
<path d="M1141 4946 c-9 -11 -8 -15 5 -20 23 -9 38 8 21 23 -11 9 -17 8 -26
-3z"/>
<path d="M5708 4933 c7 -3 16 -2 19 1 4 3 -2 6 -13 5 -11 0 -14 -3 -6 -6z"/>
<path d="M4664 4805 c-14 -22 -18 -23 -28 -11 -17 23 -84 9 -126 -25 -29 -25
-33 -31 -20 -40 11 -7 4 -8 -26 -4 -29 4 -45 2 -55 -8 -8 -8 -31 -17 -51 -21
-20 -3 -41 -13 -48 -21 -7 -8 -23 -15 -35 -15 -13 0 -36 -11 -52 -24 -15 -13
-51 -35 -79 -49 -28 -14 -54 -33 -57 -42 -4 -8 -17 -15 -30 -15 -13 0 -32 -9
-41 -19 -10 -11 -25 -17 -37 -14 -14 4 -30 -6 -55 -31 -19 -20 -44 -36 -55
-36 -10 0 -27 -4 -37 -9 -9 -6 -29 -12 -44 -16 -16 -3 -28 -11 -28 -18 0 -6
-21 -19 -48 -27 -38 -13 -53 -25 -80 -64 l-32 -49 50 -51 c28 -28 62 -67 75
-86 13 -19 35 -51 49 -70 13 -19 40 -51 60 -69 33 -32 36 -33 36 -13 0 19 5
22 44 22 25 0 48 6 52 12 6 9 10 5 14 -11 3 -15 14 -25 28 -27 18 -3 22 1 23
24 1 15 1 31 0 36 -5 24 9 37 29 26 16 -8 20 -8 20 4 0 8 8 17 18 20 52 14 84
17 96 7 7 -6 22 -8 32 -4 17 6 16 7 -2 14 -17 6 -15 9 14 19 33 12 43 30 17
30 -8 0 -15 6 -15 13 0 22 43 41 104 47 63 5 85 25 42 36 -16 4 -27 14 -27 25
-1 10 -2 24 -3 30 -1 7 16 18 38 25 21 8 44 21 51 31 7 9 19 14 28 10 11 -4
14 -2 11 8 -6 13 30 25 81 26 86 1 95 4 115 37 11 17 23 32 27 32 5 -1 27 -5
51 -9 46 -9 58 4 22 27 -17 10 -18 15 -8 32 10 16 10 24 0 40 -7 11 -8 20 -3
20 6 0 13 -4 16 -10 9 -15 41 -12 54 4 9 11 9 20 2 35 -14 25 -4 51 20 51 13
0 19 -7 19 -21 0 -29 24 -18 30 14 6 32 49 87 68 87 8 0 12 6 9 13 -2 6 -12
11 -21 11 -20 -2 -21 29 -1 50 20 20 19 36 -2 36 -35 -1 -143 -28 -157 -39
-11 -9 -17 -8 -29 4 -9 8 -25 15 -36 15 -12 0 -21 5 -21 10 0 20 -40 9 -56
-15z m66 -15 c-20 -13 -40 -13 -40 0 0 6 12 10 28 10 21 0 24 -2 12 -10z"/>
<path d="M5740 4625 c0 -8 5 -15 10 -15 6 0 10 7 10 15 0 8 -4 15 -10 15 -5 0
-10 -7 -10 -15z"/>
<path d="M2570 4510 c0 -5 7 -10 15 -10 8 0 15 5 15 10 0 6 -7 10 -15 10 -8 0
-15 -4 -15 -10z"/>
<path d="M4830 4465 c0 -8 7 -15 15 -15 8 0 15 7 15 15 0 8 -7 15 -15 15 -8 0
-15 -7 -15 -15z"/>
<path d="M2856 4431 c-4 -5 -3 -16 0 -24 14 -38 -49 -110 -91 -105 -39 4 -42
-17 -5 -30 26 -10 30 -16 30 -49 0 -21 -9 -58 -20 -82 -11 -24 -20 -55 -20
-70 0 -15 -5 -32 -12 -39 -6 -6 -15 -33 -20 -59 -4 -26 -13 -73 -19 -103 -18
-90 -22 -179 -9 -209 14 -35 112 -131 133 -131 9 0 19 5 23 11 3 6 21 17 39
25 24 10 35 22 40 43 11 50 35 63 134 70 49 3 93 9 96 13 15 15 -9 27 -65 34
-64 7 -75 14 -82 56 -7 36 12 51 58 46 45 -4 57 17 20 33 -35 16 -33 29 4 29
20 0 43 -11 69 -35 21 -19 41 -35 45 -35 15 0 4 28 -19 50 -29 27 -33 60 -7
60 24 -1 76 -75 78 -111 1 -22 -3 -29 -17 -29 -10 0 -21 5 -24 10 -7 12 -75
14 -75 3 0 -5 17 -21 37 -38 32 -25 49 -30 105 -33 81 -5 113 12 200 103 62
65 71 95 37 119 -12 8 -39 36 -60 62 -40 48 -51 98 -27 122 8 8 5 14 -16 22
-15 5 -33 10 -40 10 -17 0 -64 46 -71 71 -5 16 -52 49 -69 49 -3 0 -6 -15 -8
-32 -2 -25 -8 -34 -26 -36 -12 -2 -27 -12 -32 -23 -15 -27 -32 -24 -52 10 -9
16 -25 34 -36 40 -19 10 -20 8 -15 -27 11 -87 10 -90 -42 -107 l-20 -7 20 -8
c11 -4 33 -13 49 -19 23 -9 26 -14 16 -26 -19 -22 -102 -20 -124 3 -15 18 -15
20 3 36 10 9 24 38 30 63 10 38 9 49 -4 69 -8 13 -15 39 -15 59 0 34 -12 46
-25 25 -9 -14 -58 -13 -73 2 -17 17 -15 83 3 98 8 7 12 16 9 21 -7 12 -31 12
-38 0z m504 -375 c0 -2 3 -11 6 -20 5 -12 0 -16 -19 -16 -30 0 -45 18 -26 31
15 9 39 12 39 5z"/>
<path d="M3005 4420 c28 -12 37 -12 30 0 -3 6 -16 10 -28 9 -21 0 -21 -1 -2
-9z"/>
<path d="M4695 4370 c3 -5 24 -10 46 -10 21 0 39 5 39 10 0 6 -21 10 -46 10
-27 0 -43 -4 -39 -10z"/>
<path d="M3114 4350 c-5 -5 -8 -30 -4 -57 l5 -48 40 0 c34 0 40 3 38 20 -1 11
4 23 10 27 8 5 6 15 -9 35 -22 29 -62 41 -80 23z"/>
<path d="M3477 4156 c-21 -16 -22 -32 -1 -40 21 -8 34 1 34 24 0 25 -12 31
-33 16z"/>
<path d="M2375 4139 c-10 -30 -2 -32 12 -3 6 13 7 24 3 24 -5 0 -12 -9 -15
-21z"/>
<path d="M6320 3955 c0 -18 -42 -20 -70 -3 -16 10 -22 8 -40 -14 -14 -19 -32
-28 -58 -30 -24 -2 -36 -8 -34 -16 1 -8 -7 -16 -18 -19 -11 -3 -20 -9 -20 -13
0 -5 -13 -11 -29 -15 -20 -4 -34 -16 -43 -36 -15 -35 -33 -37 -49 -7 l-12 22
-23 -30 c-13 -16 -24 -37 -24 -46 0 -11 -14 -24 -35 -32 -19 -8 -40 -26 -47
-40 -6 -15 -15 -26 -20 -26 -4 0 -8 -11 -8 -25 0 -14 -7 -28 -15 -31 -8 -4
-15 -10 -15 -15 0 -13 50 -35 94 -42 22 -4 43 -12 47 -19 7 -10 11 -10 21 0 6
6 19 12 28 11 10 0 7 -4 -7 -11 -36 -17 -27 -31 15 -23 20 4 38 10 40 14 1 5
13 6 26 4 13 -3 30 2 39 11 21 22 40 20 55 -4 16 -26 39 -25 61 1 15 18 21 20
39 10 13 -7 51 -11 85 -9 34 1 70 -2 80 -6 16 -8 17 6 17 223 l0 231 -40 0
c-29 0 -40 -4 -40 -15z"/>
<path d="M3654 3729 c-3 -5 -2 -13 1 -19 9 -15 -27 -12 -68 5 -40 17 -108 20
-122 6 -6 -5 -21 -11 -35 -13 -14 -2 -25 -10 -25 -18 0 -12 14 -14 82 -12 72
4 89 1 140 -22 53 -25 72 -40 73 -58 0 -5 -9 -8 -19 -8 -11 0 -35 -9 -53 -19
-18 -11 -53 -22 -77 -26 -60 -10 -34 -25 43 -25 41 0 65 5 77 16 16 15 28 15
101 4 46 -6 142 -18 213 -25 138 -15 201 -26 250 -45 17 -7 75 -18 130 -26 55
-7 121 -18 147 -23 91 -19 102 10 34 86 -62 68 -108 98 -201 128 -44 15 -84
30 -90 35 -6 5 -31 13 -55 19 -40 9 -43 8 -25 -5 39 -29 -76 -3 -121 28 -43
29 -70 35 -76 19 -1 -5 -37 -12 -78 -15 -41 -3 -94 -9 -118 -12 -31 -4 -48 -2
-60 8 -22 19 -60 29 -68 17z"/>
<path d="M6200 3510 c0 -5 5 -10 10 -10 6 0 10 5 10 10 0 6 -4 10 -10 10 -5 0
-10 -4 -10 -10z"/>
<path d="M3456 3445 c-26 -30 -41 -55 -34 -55 24 0 58 30 58 52 0 11 8 27 17
34 10 7 15 15 12 18 -3 4 -27 -18 -53 -49z"/>
<path d="M3543 3478 c-25 -12 -31 -38 -9 -38 7 0 31 7 51 16 29 12 35 18 24
25 -18 11 -38 10 -66 -3z"/>
<path d="M2930 3413 c0 -13 -3 -14 -12 -5 -16 16 -38 15 -38 -1 0 -10 79 -41
87 -34 0 1 -1 14 -4 30 -6 29 -33 38 -33 10z"/>
<path d="M2303 3160 c0 -114 0 -119 7 -53 4 40 4 96 0 125 -6 41 -7 25 -7 -72z"/>
<path d="M5685 2958 c3 -7 1 -19 -4 -27 -8 -12 -15 -11 -45 7 -28 17 -36 18
-36 7 0 -17 -36 -28 -71 -23 -16 2 -24 -2 -24 -12 0 -9 -8 -14 -20 -12 -11 1
-42 4 -70 7 -27 2 -60 7 -72 10 -18 6 -23 3 -23 -10 0 -12 5 -15 20 -10 14 4
20 2 20 -9 0 -13 -5 -14 -26 -6 -45 17 -208 -9 -218 -35 -3 -8 -18 -13 -33
-13 -15 0 -45 -7 -67 -16 -21 -9 -51 -16 -67 -16 -19 0 -29 -5 -29 -14 0 -20
-18 -30 -33 -18 -32 25 -122 19 -122 -8 0 -8 -11 -17 -25 -18 -14 -2 -30 -8
-37 -14 -7 -5 -16 -7 -22 -4 -14 9 -41 -4 -41 -20 0 -11 4 -12 19 -5 20 11 31
5 31 -15 0 -19 -67 -39 -85 -24 -14 12 -35 6 -35 -9 0 -4 11 -13 25 -19 30
-14 32 -28 5 -35 -22 -6 -26 -30 -7 -44 22 -18 101 -33 112 -22 6 6 2 12 -12
15 -12 3 -19 12 -17 19 6 16 54 7 54 -10 0 -7 7 -18 15 -25 11 -10 18 -9 30 4
9 9 20 16 25 16 5 0 15 3 24 6 11 4 19 -2 26 -21 6 -15 16 -25 23 -22 6 2 26
-3 42 -12 26 -14 85 -21 175 -20 91 1 114 -2 121 -12 5 -9 14 -9 36 -1 15 6
56 14 90 17 52 4 64 2 73 -12 8 -13 13 -14 16 -5 3 6 10 10 15 7 5 -3 19 0 31
7 16 9 69 13 173 13 126 0 150 2 150 15 0 8 8 16 18 18 13 3 17 -2 15 -15 -5
-29 25 -21 36 10 7 20 7 34 -2 47 -6 11 -8 21 -4 23 16 9 94 -6 99 -19 9 -23
32 -16 39 11 6 24 8 25 30 10 33 -21 37 -19 32 15 -4 24 -1 30 14 30 10 0 18
-4 18 -10 0 -5 13 -10 29 -10 20 0 34 -8 45 -25 14 -22 20 -24 38 -14 14 8 27
8 44 1 26 -12 83 0 96 20 12 20 9 38 -6 38 -8 0 -16 -6 -19 -12 -4 -13 -97
-19 -97 -8 0 9 57 40 74 40 9 0 24 8 35 19 10 10 25 21 32 23 8 3 11 9 6 13
-4 5 -17 -1 -30 -13 -22 -20 -22 -20 -45 -2 -18 15 -27 17 -41 8 -11 -7 -35
-8 -67 -3 -52 8 -52 7 24 35 35 14 48 52 13 43 -10 -3 -28 0 -40 6 -17 10 -19
15 -9 30 9 15 9 23 -1 35 -20 24 -50 20 -61 -9 -9 -25 -30 -35 -30 -14 0 6 -6
17 -14 25 -15 14 -11 54 5 54 5 0 9 4 9 10 0 5 -7 7 -16 3 -10 -4 -17 1 -21
16 -6 22 -18 27 -28 11 -3 -5 -16 -10 -27 -10 -19 0 -20 -2 -6 -17 31 -36 30
-42 -3 -33 -41 12 -44 16 -30 34 11 13 6 18 -25 31 -35 15 -40 15 -50 0 -9
-13 -19 -14 -45 -8 -39 11 -102 -6 -94 -24 2 -7 0 -13 -5 -13 -6 0 -10 11 -10
24 0 13 -7 27 -16 30 -22 8 -24 8 -19 -6z m-1015 -368 c0 -5 -7 -10 -15 -10
-8 0 -15 5 -15 10 0 6 7 10 15 10 8 0 15 -4 15 -10z m1010 -65 c0 -9 -9 -15
-24 -15 -28 0 -43 16 -24 23 26 11 48 7 48 -8z"/>
<path d="M6075 2560 c6 -9 2 -10 -16 -5 -21 7 -22 6 -10 -9 7 -9 17 -16 21
-16 13 0 20 29 8 36 -7 5 -8 2 -3 -6z"/>
<path d="M6355 2563 c-31 -8 -42 -22 -25 -33 23 -15 40 -12 47 8 4 9 11 20 17
24 12 8 -6 9 -39 1z"/>
<path d="M6160 2549 c0 -5 5 -7 10 -4 6 3 10 8 10 11 0 2 -4 4 -10 4 -5 0 -10
-5 -10 -11z"/>
<path d="M888 2087 c-58 -22 -108 -60 -92 -70 9 -5 217 72 230 86 16 15 -84 4
-138 -16z"/>
<path d="M573 2059 c-6 -6 -21 -16 -34 -23 -12 -6 -24 -17 -27 -23 -4 -15 34
-18 43 -3 3 6 17 7 30 4 25 -6 47 19 38 44 -6 15 -35 16 -50 1z"/>
<path d="M367 2002 c-26 -26 -47 -50 -47 -54 0 -5 10 -8 23 -8 27 0 71 42 86
83 16 41 -6 34 -62 -21z"/>
<path d="M4672 2028 c6 -18 28 -21 28 -4 0 9 -7 16 -16 16 -9 0 -14 -5 -12
-12z"/>
<path d="M4791 2026 c-10 -12 -7 -17 16 -28 15 -7 26 -17 25 -23 -4 -15 -103
-7 -122 10 -19 17 -40 20 -40 5 0 -20 -41 -10 -50 13 -7 19 -9 19 -9 3 -1 -10
8 -34 20 -53 12 -18 17 -33 13 -31 -15 4 -54 -22 -54 -37 0 -15 35 -30 50 -20
12 8 13 -15 1 -34 -7 -11 -13 -12 -23 -4 -22 17 -82 22 -93 7 -11 -14 -125
-36 -125 -24 0 8 -227 27 -270 23 -14 -2 -40 -3 -58 -3 -19 0 -41 -7 -49 -15
-8 -8 -30 -15 -49 -15 -22 0 -37 -6 -40 -15 -10 -26 -34 3 -34 41 0 46 -17 43
-26 -3 -4 -21 -18 -63 -31 -93 -14 -30 -40 -98 -59 -150 -19 -52 -52 -131 -73
-175 -21 -44 -46 -99 -55 -122 -16 -43 -9 -56 14 -28 7 8 27 15 45 15 38 0 49
8 34 27 -14 16 -11 16 29 2 34 -12 131 3 142 21 3 6 33 12 66 15 32 4 63 10
68 15 6 6 25 10 43 10 18 0 34 5 35 10 0 6 1 15 2 22 1 9 -35 11 -133 10 -74
-1 -140 2 -145 7 -16 11 -55 11 -61 0 -10 -15 -23 -10 -30 10 -13 43 26 68 58
36 12 -12 16 -12 20 -1 4 9 42 15 134 21 110 7 171 8 349 4 18 -1 47 6 65 14
19 9 45 16 59 16 76 -1 190 15 190 27 0 7 15 21 33 33 21 13 33 29 35 46 2 22
-1 25 -23 19 -19 -5 -25 -2 -25 9 0 11 9 15 33 14 17 -1 44 2 59 6 19 5 31 2
42 -9 16 -15 18 -14 20 16 1 10 10 14 26 13 48 -4 56 -5 133 -2 54 1 80 6 84
15 7 20 -20 42 -56 46 l-32 3 19 35 c23 47 15 85 -18 85 -19 0 -26 -7 -30 -31
-8 -37 -18 -54 -31 -54 -14 0 -11 58 4 64 8 3 3 13 -15 28 -27 23 -41 67 -17
52 6 -3 22 0 36 7 22 12 27 11 39 -5 13 -19 14 -19 20 0 3 10 11 29 17 42 9
18 7 25 -8 36 -10 7 -28 11 -39 8 -18 -5 -18 -7 -3 -10 9 -2 17 -8 17 -13 0
-14 -9 -11 -37 11 -17 13 -33 17 -54 13 -20 -4 -35 0 -48 11 -16 14 -20 15
-30 2z m-81 -91 c7 -9 10 -18 7 -21 -10 -11 -37 5 -37 21 0 19 14 19 30 0z
m90 -32 c0 -10 -9 -13 -27 -11 -31 4 -42 25 -16 30 26 6 43 -2 43 -19z m-740
-123 c0 -5 -9 -10 -21 -10 -11 0 -17 5 -14 10 3 6 13 10 21 10 8 0 14 -4 14
-10z m168 -7 c-10 -2 -26 -2 -35 0 -10 3 -2 5 17 5 19 0 27 -2 18 -5z m-283
-15 c13 1 7 -5 -15 -17 -35 -19 -47 -14 -36 15 4 9 11 12 18 7 7 -4 22 -6 33
-5z m150 -229 c11 -1 -5 -5 -35 -10 -30 -4 -66 -5 -80 -1 -22 6 -21 7 15 13
22 4 49 5 60 3 11 -2 29 -4 40 -5z m230 1 c-3 -5 -34 -10 -68 -10 -44 0 -58 3
-47 10 20 13 123 13 115 0z m-405 -9 c0 -15 -62 -42 -81 -36 -9 3 -19 15 -22
25 -5 18 0 20 49 20 30 0 54 -4 54 -9z"/>
<path d="M1388 2013 c-10 -2 -18 -11 -18 -19 0 -8 -4 -13 -9 -9 -5 3 -16 -3
-23 -13 -14 -21 -138 -41 -138 -23 0 5 6 11 13 14 6 2 -1 8 -16 12 -21 6 -33
3 -50 -12 -12 -11 -35 -23 -51 -27 -16 -4 -41 -16 -54 -27 -14 -10 -30 -19
-37 -19 -7 0 -15 -8 -17 -17 -3 -13 -15 -18 -38 -18 -29 0 -34 4 -46 38 -13
36 -12 39 6 44 11 3 20 11 20 19 0 10 -9 12 -32 7 -18 -3 -37 -10 -42 -14 -21
-19 -54 -9 -62 19 -4 15 -7 30 -6 35 3 13 -21 8 -39 -8 -9 -9 -33 -17 -53 -18
-21 -2 -41 -9 -46 -17 -5 -8 -27 -14 -52 -15 -32 -1 -58 -11 -103 -41 -33 -22
-73 -46 -88 -54 -16 -8 -34 -28 -42 -46 -12 -29 -17 -32 -71 -36 -48 -4 -62
-10 -85 -35 -15 -17 -36 -34 -48 -38 -12 -3 -21 -11 -21 -16 0 -6 -7 -17 -15
-25 -8 -9 -15 -23 -15 -32 -1 -21 -29 -55 -59 -71 -12 -7 -20 -18 -17 -26 7
-19 -5 -27 -21 -14 -11 10 -13 -49 -13 -350 0 -234 4 -361 10 -361 6 0 10 -7
10 -15 0 -8 -4 -15 -10 -15 -6 0 -10 -38 -10 -95 l0 -94 38 -6 c20 -4 57 -13
81 -21 25 -8 62 -14 83 -14 21 0 38 -4 38 -10 0 -5 -11 -10 -24 -10 -13 0 -29
-7 -36 -15 -10 -13 -7 -17 21 -29 26 -11 46 -12 88 -4 45 8 56 7 72 -8 18 -16
22 -16 56 -1 66 28 83 30 89 12 5 -11 -2 -25 -19 -40 -14 -13 -27 -29 -28 -34
-2 -6 -40 -20 -84 -30 -44 -11 -89 -22 -100 -25 -11 -3 42 -2 118 1 149 6 168
-1 97 -37 -35 -18 -40 -25 -40 -56 0 -22 -4 -33 -11 -29 -17 11 -97 -5 -114
-21 -23 -24 -9 -34 48 -35 29 0 60 -4 70 -8 18 -6 18 -8 2 -21 -11 -9 -44 -15
-89 -16 -39 -1 -105 -9 -146 -18 -41 -9 -95 -16 -120 -15 -88 3 -90 3 -90 -37
l0 -36 37 7 c21 4 83 8 138 9 128 3 222 18 312 50 39 15 78 26 86 26 9 0 50
11 91 24 42 14 91 28 111 32 30 5 34 4 29 -10 -3 -9 -14 -16 -23 -16 -10 0
-26 -7 -37 -15 -17 -13 -9 -14 83 -15 57 0 105 -4 108 -10 9 -14 -7 -18 -120
-29 -110 -12 -165 -28 -165 -49 0 -12 -3 -12 -15 -2 -15 12 -35 6 -35 -11 0
-7 34 -9 93 -6 115 6 157 15 157 34 0 13 11 14 68 8 49 -5 90 -2 148 11 43 10
102 17 130 15 36 -1 61 4 85 18 19 11 65 25 104 31 62 10 84 21 85 42 0 10
-94 28 -146 28 -37 0 -46 4 -55 24 -12 25 -21 28 -149 45 -74 11 -158 -3 -167
-25 -8 -20 -62 -47 -80 -40 -13 6 -13 9 2 32 35 54 -4 95 -107 110 -59 8 -81
29 -40 37 16 3 38 3 50 0 11 -3 31 2 44 11 12 9 36 16 53 17 29 0 28 1 -17 24
-37 18 -68 24 -137 26 -138 6 -137 25 1 27 97 1 120 -1 163 -21 28 -12 52 -25
55 -28 3 -3 19 -9 35 -12 55 -11 149 -27 220 -38 39 -6 102 -20 140 -31 39
-12 108 -23 155 -25 98 -5 125 -22 136 -82 4 -20 11 -42 16 -48 11 -14 6 -147
-6 -175 -7 -16 -1 -18 58 -18 l66 0 0 34 0 33 63 2 c70 1 240 48 234 65 -6 18
-57 19 -96 3 -20 -9 -67 -18 -106 -22 -38 -3 -75 -11 -82 -16 -13 -12 -17 -1
-28 82 -6 49 21 129 41 122 7 -2 25 9 41 25 31 31 83 44 236 58 l77 6 0 -38
c0 -56 20 -153 40 -200 23 -51 35 -114 23 -114 -5 0 -24 11 -42 24 -26 19 -41
24 -65 19 -60 -12 -93 -31 -98 -58 l-5 -25 226 1 c174 1 216 4 185 11 -29 7
-45 18 -53 35 -6 13 -11 25 -11 26 0 1 49 0 108 -1 90 -3 110 -1 122 13 26 31
-3 40 -126 39 l-114 0 0 30 c0 17 5 51 11 75 9 39 7 48 -9 71 -27 35 -36 84
-20 97 7 5 45 15 83 22 90 16 341 78 380 94 110 45 252 132 397 243 107 82
145 121 132 134 -12 12 -77 -4 -96 -24 -8 -7 -23 -18 -36 -25 -12 -6 -22 -18
-22 -26 0 -8 -9 -19 -19 -25 -16 -8 -23 -6 -34 11 l-15 20 -32 -20 c-21 -12
-39 -17 -49 -11 -55 27 -73 32 -103 28 -45 -7 -76 6 -80 34 -2 13 -8 23 -15
23 -6 0 -15 3 -19 7 -4 5 -20 8 -36 8 -18 0 -28 5 -28 15 0 8 -12 17 -27 21
-16 3 -34 8 -42 10 -8 3 -11 -1 -7 -11 4 -10 -1 -15 -14 -15 -16 0 -19 5 -13
30 5 27 3 30 -21 30 -15 0 -34 -7 -43 -15 -11 -12 -33 -14 -96 -11 -45 2 -86
5 -92 7 -5 1 -18 -1 -28 -5 -26 -12 -70 2 -63 19 4 11 -2 15 -25 15 -26 0 -29
3 -24 20 7 21 0 24 -42 20 -13 -1 -23 3 -23 9 0 6 -9 11 -20 11 -11 0 -20 5
-20 10 0 6 -22 10 -48 10 -27 0 -52 3 -56 8 -4 4 -13 7 -19 7 -7 0 -13 13 -15
28 -3 28 -4 28 -64 24 -44 -3 -55 -1 -42 6 11 5 29 19 41 30 18 16 40 21 92
24 39 1 75 4 83 5 7 2 17 -7 23 -20 14 -31 39 -35 165 -29 74 4 123 2 158 -7
27 -8 63 -12 78 -9 68 10 74 13 74 36 0 31 -18 47 -52 47 -21 0 -28 -5 -28
-20 0 -24 -22 -26 -40 -5 -7 8 -19 15 -26 15 -19 0 -18 16 1 24 25 9 17 26
-12 26 -15 0 -56 7 -91 16 -60 15 -66 15 -74 0 -12 -21 -68 -22 -68 -1 0 8 5
15 10 15 6 0 10 4 10 9 0 6 -26 10 -57 10 -100 -1 -154 38 -72 52 47 7 62 18
56 40 -3 10 -1 22 4 25 14 8 0 24 -22 24 -14 0 -19 7 -19 24 0 22 5 25 43 28
36 3 42 6 43 26 1 13 6 28 13 35 6 6 11 17 11 25 0 16 37 52 54 52 16 0 76 68
76 85 0 24 -18 17 -32 -11 -19 -39 -33 -30 -33 20 0 33 -6 51 -24 70 -24 26
-24 26 -55 7 -46 -27 -168 -36 -212 -15 -38 18 -87 13 -114 -11 -19 -18 -34
-8 -47 30 -7 22 -16 30 -32 29 -14 0 -23 7 -27 22 -5 20 -9 22 -32 13 -14 -5
-44 -23 -66 -39 -62 -46 -70 -39 -36 36 11 24 25 44 30 44 6 0 10 6 10 14 0
18 -31 29 -62 21 -32 -8 -68 7 -106 44 -30 31 -70 38 -124 24z m-798 -133 c0
-5 -5 -10 -11 -10 -5 0 -7 5 -4 10 3 6 8 10 11 10 2 0 4 -4 4 -10z m545 -9
c10 -17 -12 -21 -25 -6 -10 12 -10 15 3 15 9 0 18 -4 22 -9z m964 -627 c9 -8
-13 -24 -32 -24 -54 0 -88 23 -49 33 16 5 73 -2 81 -9z m288 -50 c-3 -3 -12
-4 -19 -1 -8 3 -5 6 6 6 11 1 17 -2 13 -5z m-497 -189 c0 -8 -1 -15 -2 -16 -2
0 -50 -4 -108 -9 -58 -5 -122 -12 -142 -16 -26 -4 -38 -3 -38 5 0 19 39 30
135 40 141 13 155 13 155 -4z m-481 -101 c11 -10 -11 -15 -55 -12 -46 3 -48 4
-24 15 22 11 67 9 79 -3z m-92 -57 c3 -4 -18 -7 -48 -7 -30 0 -65 -3 -79 -7
-23 -6 -24 -5 -11 11 11 14 26 16 73 13 32 -2 61 -7 65 -10z m-549 -585 c-37
-8 -75 -12 -84 -8 -26 10 -9 18 48 23 29 2 54 6 56 7 2 2 13 1 25 -2 16 -4 3
-10 -45 -20z m346 -52 c-11 -11 -82 -27 -72 -15 6 6 25 12 78 24 2 1 0 -3 -6
-9z"/>
<path d="M475 1979 c-4 -6 -5 -13 -2 -16 7 -7 27 6 27 18 0 12 -17 12 -25 -2z"/>
<path d="M5075 1959 c-4 -6 -13 -8 -21 -5 -7 3 -18 -4 -24 -14 -9 -17 -7 -20
10 -20 11 0 20 4 20 10 0 5 7 7 15 4 21 -9 51 16 33 27 -18 12 -26 11 -33 -2z"/>
<path d="M405 1920 c-3 -6 1 -7 9 -4 18 7 21 14 7 14 -6 0 -13 -4 -16 -10z"/>
<path d="M4515 1910 c3 -5 8 -10 11 -10 2 0 4 5 4 10 0 6 -5 10 -11 10 -5 0
-7 -4 -4 -10z"/>
<path d="M5020 1885 c0 -15 46 -32 58 -21 3 4 -4 9 -16 13 -12 3 -22 9 -22 14
0 5 -4 9 -10 9 -5 0 -10 -7 -10 -15z"/>
<path d="M312 1845 c0 -16 2 -22 5 -12 2 9 2 23 0 30 -3 6 -5 -1 -5 -18z"/>
<path d="M5022 1798 c5 -15 28 -18 29 -3 0 6 -7 12 -17 13 -10 3 -15 -1 -12
-10z"/>
<path d="M2372 1760 c0 -14 2 -19 5 -12 2 6 2 18 0 25 -3 6 -5 1 -5 -13z"/>
<path d="M5120 1750 c0 -5 5 -10 10 -10 6 0 10 5 10 10 0 6 -4 10 -10 10 -5 0
-10 -4 -10 -10z"/>
<path d="M4935 1590 c3 -5 10 -10 16 -10 5 0 9 5 9 10 0 6 -7 10 -16 10 -8 0
-12 -4 -9 -10z"/>
<path d="M5240 1530 c0 -5 9 -10 21 -10 11 0 17 5 14 10 -3 6 -13 10 -21 10
-8 0 -14 -4 -14 -10z"/>
<path d="M5330 1530 c0 -5 5 -10 11 -10 5 0 7 5 4 10 -3 6 -8 10 -11 10 -2 0
-4 -4 -4 -10z"/>
<path d="M5766 1445 c-17 -13 -17 -15 -3 -21 22 -8 50 3 45 18 -6 18 -21 19
-42 3z"/>
<path d="M5850 1445 c-10 -12 -7 -15 15 -21 28 -7 52 7 41 25 -10 16 -41 14
-56 -4z"/>
<path d="M6218 1415 c-3 -4 -27 -8 -52 -9 -55 -3 -65 -11 -43 -33 16 -16 19
-16 52 0 36 17 61 15 50 -4 -4 -5 -2 -9 3 -9 6 0 12 7 16 15 3 8 13 15 22 15
25 0 10 25 -17 28 -14 2 -28 0 -31 -3z"/>
<path d="M5988 1379 c-37 -21 -7 -40 36 -23 13 5 14 9 5 20 -13 16 -18 17 -41
3z"/>
<path d="M6357 1383 c-16 -16 -5 -33 21 -32 15 0 21 3 15 6 -7 2 -13 11 -13
19 0 15 -12 19 -23 7z"/>
<path d="M6285 1350 c3 -5 13 -10 21 -10 8 0 14 5 14 10 0 6 -9 10 -21 10 -11
0 -17 -4 -14 -10z"/>
<path d="M2315 1320 c-4 -6 13 -10 45 -10 32 0 49 4 45 10 -3 6 -24 10 -45 10
-21 0 -42 -4 -45 -10z"/>
<path d="M6298 1283 c7 -3 16 -2 19 1 4 3 -2 6 -13 5 -11 0 -14 -3 -6 -6z"/>
<path d="M2910 1160 c0 -5 5 -10 10 -10 6 0 10 5 10 10 0 6 -4 10 -10 10 -5 0
-10 -4 -10 -10z"/>
<path d="M3397 1034 c-4 -4 -7 -16 -7 -27 0 -11 -7 -29 -17 -39 -9 -10 -11
-18 -5 -18 14 0 64 60 59 73 -4 14 -21 19 -30 11z"/>
<path d="M45 501 c-35 -5 -40 -10 -43 -35 -2 -16 2 -33 10 -38 10 -7 10 -11 1
-15 -7 -2 -13 -15 -13 -27 0 -19 4 -22 31 -18 35 5 49 29 28 46 -23 17 -17 41
11 44 26 4 63 36 53 46 -7 7 -18 6 -78 -3z"/>
<path d="M2736 411 c-18 -7 -18 -8 -2 -14 25 -10 64 -9 70 2 11 18 -33 26 -68
12z"/>
<path d="M3380 410 c0 -5 9 -10 21 -10 11 0 17 5 14 10 -3 6 -13 10 -21 10 -8
0 -14 -4 -14 -10z"/>
<path d="M2710 352 c0 -21 75 -80 87 -69 8 8 -16 37 -30 37 -6 0 -21 10 -34
22 -13 12 -23 17 -23 10z"/>
<path d="M3618 306 c-16 -12 -25 -36 -13 -36 12 0 75 35 75 42 0 13 -43 9 -62
-6z"/>
<path d="M2822 282 c-10 -7 -8 -13 7 -26 21 -19 37 -7 27 19 -6 17 -15 18 -34
7z"/>
<path d="M2408 273 c-18 -4 -19 -7 -22 -40 -1 -16 15 -19 149 -25 82 -3 153
-4 157 -2 3 2 6 13 5 23 -1 16 -6 17 -40 9 -29 -6 -47 -4 -72 8 -22 10 -51 15
-77 12 -24 -3 -52 1 -63 7 -11 7 -28 10 -37 8z"/>
<path d="M1790 245 c0 -8 7 -15 15 -15 8 0 15 4 15 9 0 5 -7 11 -15 15 -9 3
-15 0 -15 -9z"/>
<path d="M3672 240 c0 -14 2 -19 5 -12 2 6 2 18 0 25 -3 6 -5 1 -5 -13z"/>
<path d="M142 198 c-13 -13 -75 -38 -115 -45 -15 -3 -27 -12 -27 -19 0 -17 84
-11 164 12 27 8 62 14 77 14 15 0 31 5 34 10 3 6 -4 10 -17 10 -14 0 -33 7
-44 15 -23 18 -56 19 -72 3z"/>
<path d="M2900 195 c7 -8 24 -15 38 -15 25 0 25 1 6 15 -10 8 -27 15 -38 15
-15 0 -16 -3 -6 -15z"/>
<path d="M4515 190 c-8 -13 21 -61 48 -81 19 -13 29 -14 67 -4 45 12 45 12 18
23 -14 6 -29 16 -33 22 -6 9 -78 50 -89 50 -3 0 -8 -4 -11 -10z"/>
<path d="M4935 180 c-11 -5 -32 -9 -46 -9 -15 -1 -37 -10 -51 -20 -17 -14 -44
-21 -89 -23 -74 -3 -86 -22 -17 -26 31 -2 70 6 120 23 40 15 91 29 112 33 47
8 62 32 19 31 -15 0 -37 -4 -48 -9z"/>
<path d="M3560 155 c0 -8 5 -15 10 -15 6 0 10 7 10 15 0 8 -4 15 -10 15 -5 0
-10 -7 -10 -15z"/>
<path d="M2763 153 c-13 -2 -23 -10 -23 -18 0 -9 20 -15 61 -20 67 -8 92 3 69
30 -12 14 -56 18 -107 8z"/>
<path d="M3780 140 c-12 -8 -10 -10 8 -10 13 0 20 4 17 10 -7 12 -6 12 -25 0z"/>
<path d="M3680 130 c0 -5 5 -10 10 -10 6 0 10 5 10 10 0 6 -4 10 -10 10 -5 0
-10 -4 -10 -10z"/>
<path d="M2925 121 c-11 -19 12 -38 60 -50 60 -15 108 -14 103 2 -11 31 -148
72 -163 48z"/>
<path d="M2705 81 c-30 -6 -165 -70 -165 -77 0 -2 96 -4 213 -4 212 0 212 0
187 20 -54 42 -177 74 -235 61z"/>
<path d="M614 55 c-19 -14 -19 -14 2 -15 12 0 24 7 28 15 7 19 -5 19 -30 0z"/>
<path d="M3170 60 c0 -5 12 -10 28 -10 21 0 24 2 12 10 -20 13 -40 13 -40 0z"/>
<path d="M494 8 c-3 -4 6 -8 20 -8 14 0 26 4 26 8 0 4 -9 8 -21 8 -11 0 -23
-4 -25 -8z"/>
</g>
</svg>
